<svg id="Layer_1" data-name="Layer 1" xmlns="http://www.w3.org/2000/svg" xmlns:xlink="http://www.w3.org/1999/xlink" viewBox="0 0 200 57.46"><defs><style>.cls-1{fill:url(#linear-gradient);}.cls-2{fill:url(#linear-gradient-2);}.cls-3{fill:url(#linear-gradient-3);}.cls-4{fill:url(#linear-gradient-4);}</style><linearGradient id="linear-gradient" x1="57.71" y1="48.51" x2="58.19" y2="48.51" gradientUnits="userSpaceOnUse"><stop offset="0" stop-color="#f30b55"/><stop offset="1" stop-color="#012840"/></linearGradient><linearGradient id="linear-gradient-2" x1="190.49" y1="16.41" x2="190.92" y2="16.41" xlink:href="#linear-gradient"/><linearGradient id="linear-gradient-3" x1="153.32" y1="37.92" x2="153.56" y2="37.92" xlink:href="#linear-gradient"/><linearGradient id="linear-gradient-4" x1="1.06" y1="29.8" x2="201.06" y2="29.8" xlink:href="#linear-gradient"/></defs><title>lesaca-logo</title><polygon class="cls-1" points="57.71 48.42 57.73 48.64 58.19 48.6 58.17 48.38 57.71 48.42"/><polygon class="cls-2" points="190.92 16.49 190.9 16.3 190.49 16.33 190.5 16.53 190.92 16.49"/><path class="cls-3" d="M153.32,37.8l.24.26,0-.28Z" transform="translate(-1.06 -1.07)"/><path class="cls-4" d="M186.2,24.66l3.62-.93q8.59-1.78,11.24-3.46l0-.41-1.47-.29.2-.21q-.06-.71-4.16-.47l-1,.31q0-.41-1.48-.7l-1,.31,0-.41a9.68,9.68,0,0,0,3.19-1.11l0-.41-1.42.34-1.43.13,0-.22,1.4-.54,0-.39-1,.15,0-.39-.41-.16,0,.22h0l-1.79.46-.22.12,0-.36-6.47,1.42c-.32,0-.57-.42-.73-1.37l-.24-.19Q180.89,7,179.86,4q-1.62-3.36-7.48-2.85a3.39,3.39,0,0,0-1.78,1l-1.05,4.23L163.67,19.2q-4.13,6.56-5.92,10.22c-2.91,3.73-4.32,6.36-4.25,7.9l-.74.06a.82.82,0,0,0-.41-.1l0-.22.92-.08,0-.46-4.09.36a33.42,33.42,0,0,1-7.55,0q-4.62-.48-4.92-3.91l-.06-.68.26-2.33q4.86-16.43,21.54-17.89a17.64,17.64,0,0,1,5,.25q3.19-.28,2.81-4.61l-.18-2Q163.26,2.46,157.37,3l-1.58.14a32.23,32.23,0,0,0-18.33,7.56,55.69,55.69,0,0,0-8.92,11.1l0-.39-.41,0,0,.41.4,0-.07.14-1.11.16-.22,0,0-.41-6.47,1.4q-.49,0-.73-1.38l-.24-.2q-1.87-9.07-2.9-12.1-1.62-3.36-7.48-2.85a3.39,3.39,0,0,0-1.78,1l-1.05,4.23-5.88,12.87q-3.61,5.73-5.43,9.25.17-1.79.15-4.67a3.4,3.4,0,0,0-1.86-3q-1.93-3-18.49-2.94l-.22,0,0-.44q12.77-7.27,21.62-8l1.36-.12q2.12-.18,2.16-3.84l-.46-2.7.14-.92-.22,0L99,7a4.77,4.77,0,0,0-2.86-1.34l-.46,0Q80.83,7,65.29,19.76,62.87,23.5,63.1,26.1a4.79,4.79,0,0,0,2.64,4.08Q66,33,85.33,32.58q-1.75,1.6-13.54,6.87c-2.74,1-5.15,2-7.25,2.83a2.14,2.14,0,0,0-.8-.16l.18-.24q-.34-1-3.42-.75l.2-.21,0-.22-.24-.18,1-.09,0-.44-1.26.11,0-.19.44,0a1.46,1.46,0,0,1,1-.72l-.06-.63q-.78.07-1.14-1l-1,.31-.22,0,0-.41L44.3,41.3q2-6.5,3.63-6.64,12.92-3.85,12.87-4.48l0-.19q0-.44-1.08-.35l0-.19.18-.24,0-.19q-1.71-.49-1.8-1.53l.14-.65-.41,0,0-.19,1-.53q0-.41-1.71-.27l0-.19.61-.27-.47-.6A31.45,31.45,0,0,0,50.76,26l-.22,0,1.91-4.8q7.11-3.56,9.74-3.79,7.66-1.58,7.59-2.33,0-.44-1.08-.35l0-.19.2-.24-2-.88-2.5.22,0-.19.63-.06L65,13q-1.24.11-1.3-.52l.83-.07,0-.22q0-.41-1.08-.32l0-.22.63-.06,0-.41a.73.73,0,0,1-.9-.75L55,11.76l-8.17.49q-2.88.67-2.7,2.76Q37.9,31.71,34.77,41.08L33.45,41,16.9,43.57l1.81-4Q29,11.15,30.57,8,30.2,3.87,23,1.92l-1.6.14Q19,2.27,17.63,5.64l.34.79Q13.81,23.21,3.2,47.75.95,49.83,1.07,51.19l.24,2.68.29.25-.25.26,0,.27q4,4,5.47,3.87l.27,0Q18.38,54.26,25,52.32q4-.91,6.94-1.64c-.06.27-.12.53-.16.76l0,.19.24.2.2,0,.2-.24.41,0-.16.65,0,.22.24.18.62-.25q2.11.33,2.16.87l1-.31.44,0,1.33.94.22,0a3.2,3.2,0,0,0,1.71-2q-.15-1.65,12.2-4.87c1.38-.37,2.64-.73,3.79-1.06-1.58.79-2.37,1.32-2.34,1.6l0,.22c.45,0,.69.09.72.4l.44,0,0,.22-.2.24,0,.22.46,0,.2-.24q.06.68,1,.6l.06.68-.2.24,1.4.34,0,.22-.46,0,0,.46.68-.06,0,.44q-1.1.27-1.06.78l0,.24,2.44-.68,0,.46-1.52.79,0,.24.24.2q15.89-5.48,24.93-9.48A45.08,45.08,0,0,0,92,38.58q-1.74,2.82-1.62,4.28l.13,1.44q0,.41.86.34.88,1.15,1.74,1.07l0,.41.41,0,.18-.21q.08.9,1.38,1.52l.19,0,.18-.21.5,1q.85-.07,2.12-1.85,3.58-6.17,4.36-6.75-.17-2,12.41-6.67l.19,0q3,10.25,4.12,11.82l1.8,1.48,2-1,.86.56.6-.47,0,.41.41,0-.06-.63a2.2,2.2,0,0,0,1.47.51l.22,0,.55-.69L127,44a36.38,36.38,0,0,0-1.42-6.31q4.92,9.06,14.76,8.21Q156.2,44.5,156,42.46l-.7-.16-.66.28,0,.22.24.22-.68.06-.48-.42,0-.22.68-.06.2-.26-.24-.2,0-.46-1.36.12-.22.26,0,.22.26.2-.46,0a.8.8,0,0,0-1-.82l0-.22.44,0,0-.46-.44,0,.32-1.4-.44,0,0-.22,2.22-.42v.06q0,.41.86.34.88,1.15,1.74,1.07l0,.41.41,0,.18-.21q.08.9,1.38,1.52l.2,0,.18-.21.5,1q.85-.07,2.12-1.85,3.58-6.17,4.36-6.75-.17-2,12.4-6.67l.2,0q3,10.25,4.12,11.82l1.8,1.49,2-1,.86.56.6-.47,0,.41.41,0-.05-.63a2.2,2.2,0,0,0,1.47.51l.22,0,.55-.69-.07-.8Q189.77,34.83,186.2,24.66ZM192,17.36l0,.19-.41,0,0-.19ZM58.79,49.71l0-.22.46,0,0,.22Zm50.6-23,0-.19q2-4.26,2.49-4.56l.89,3.23Q112.79,25.55,109.39,26.75Zm15.73,7.65.22,2.56q-.89-3-2.26-6.87l2.36-.61A17,17,0,0,0,125.12,34.4Zm28.2,3.4.21,0,0,.28Zm19.19-16.48,0-.19q2-4.26,2.49-4.56l.9,3.23Q175.91,20.12,172.51,21.32Z" transform="translate(-1.06 -1.07)"/></svg>